<svg xmlns="http://www.w3.org/2000/svg" version="1.1" viewBox="10.36 8 877.14 351.88"><path d="M 157.500 10.079 C 118.956 16.797, 86.404 34.131, 59.297 62.373 C 19.085 104.268, 2.245 162.938, 14.054 220 C 18.575 241.843, 30.007 268.100, 42.738 285.876 C 71.941 326.654, 116.991 353.345, 166.299 359.085 C 180.161 360.698, 207.493 359.685, 220.298 357.083 C 246.685 351.721, 269.900 341.473, 291.449 325.674 C 296.268 322.141, 315.856 303.468, 340.248 279.154 L 380.997 238.536 438.748 296.217 C 503.542 360.932, 501.110 358.932, 516.065 359.798 C 525.350 360.335, 533.252 358.279, 540.468 353.449 C 543.236 351.597, 622.450 273.113, 716.499 179.040 L 887.498 8 832.997 8 L 778.497 8 661.498 125.034 C 597.149 189.402, 542.475 243.365, 540 244.952 C 529.403 251.746, 514.827 252.807, 503.445 247.612 C 498.326 245.275, 493.228 240.637, 466.740 214.211 L 435.981 183.524 523.738 95.762 L 611.496 8 556.498 8.009 L 501.500 8.017 441.296 68.310 L 381.092 128.603 348.296 95.700 C 330.258 77.603, 311 58.752, 305.500 53.809 C 278.656 29.685, 247.299 14.802, 212.219 9.533 C 197.735 7.357, 171.618 7.618, 157.500 10.079 M 166 86.959 C 145.858 91.269, 128.039 101.519, 113.623 117.090 C 83.427 149.704, 78.920 198.636, 102.601 236.735 C 108.282 245.875, 121.867 259.918, 130.881 265.969 C 139.376 271.671, 151.585 277.216, 162 280.102 C 169.288 282.122, 172.782 282.458, 186.500 282.465 C 200.079 282.470, 203.786 282.123, 211 280.172 C 221.437 277.348, 236.524 270.326, 243.952 264.833 C 247.003 262.577, 266.723 243.354, 287.773 222.115 L 326.046 183.500 285.773 143.481 C 242.462 100.444, 239.941 98.373, 222.513 91.501 C 206.122 85.039, 183.480 83.219, 166 86.959" stroke="none" fill="#0d6efd" fill-rule="evenodd"/></svg>